<mxfile host="app.diagrams.net" modified="2023-11-03T10:21:48.050Z" agent="Mozilla/5.0 (Windows NT 10.0; Win64; x64) AppleWebKit/537.36 (KHTML, like Gecko) Chrome/116.0.0.0 Safari/537.36 OPR/102.0.0.0" etag="SYnCZca_PXvlwRCW-Qrp" version="22.0.8" type="device">
  <diagram name="Страница — 1" id="oxzbA5n8rJRtIyU1qTe0">
    <mxGraphModel dx="961" dy="550" grid="1" gridSize="10" guides="1" tooltips="1" connect="1" arrows="1" fold="1" page="1" pageScale="1" pageWidth="1169" pageHeight="1654" math="0" shadow="0">
      <root>
        <mxCell id="0" />
        <mxCell id="1" parent="0" />
        <mxCell id="yWR68f0oTmP50vO-MbFv-51" value="" style="endArrow=classic;html=1;rounded=0;exitX=1;exitY=0.5;exitDx=0;exitDy=0;entryX=0;entryY=0.5;entryDx=0;entryDy=0;" parent="1" edge="1">
          <mxGeometry width="50" height="50" relative="1" as="geometry">
            <mxPoint x="199.99999999999864" y="765" as="sourcePoint" />
            <mxPoint x="269.99999999999864" y="765" as="targetPoint" />
          </mxGeometry>
        </mxCell>
        <mxCell id="yWR68f0oTmP50vO-MbFv-52" value="" style="ellipse;whiteSpace=wrap;html=1;aspect=fixed;" parent="1" vertex="1">
          <mxGeometry x="170" y="747.5" width="35" height="35" as="geometry" />
        </mxCell>
        <mxCell id="yWR68f0oTmP50vO-MbFv-54" value="" style="ellipse;whiteSpace=wrap;html=1;aspect=fixed;" parent="1" vertex="1">
          <mxGeometry x="650" y="747.5" width="35" height="35" as="geometry" />
        </mxCell>
        <mxCell id="yWR68f0oTmP50vO-MbFv-56" value="" style="ellipse;whiteSpace=wrap;html=1;aspect=fixed;" parent="1" vertex="1">
          <mxGeometry x="270" y="700" width="130" height="130" as="geometry" />
        </mxCell>
        <mxCell id="yWR68f0oTmP50vO-MbFv-57" value="" style="endArrow=none;html=1;rounded=0;exitX=0;exitY=0.5;exitDx=0;exitDy=0;entryX=1;entryY=0.5;entryDx=0;entryDy=0;" parent="1" source="yWR68f0oTmP50vO-MbFv-56" target="yWR68f0oTmP50vO-MbFv-56" edge="1">
          <mxGeometry width="50" height="50" relative="1" as="geometry">
            <mxPoint x="360" y="810" as="sourcePoint" />
            <mxPoint x="410" y="760" as="targetPoint" />
          </mxGeometry>
        </mxCell>
        <mxCell id="yWR68f0oTmP50vO-MbFv-58" value="" style="endArrow=none;html=1;rounded=0;exitX=0.5;exitY=1;exitDx=0;exitDy=0;entryX=0.5;entryY=0;entryDx=0;entryDy=0;" parent="1" source="yWR68f0oTmP50vO-MbFv-56" target="yWR68f0oTmP50vO-MbFv-56" edge="1">
          <mxGeometry width="50" height="50" relative="1" as="geometry">
            <mxPoint x="360" y="810" as="sourcePoint" />
            <mxPoint x="335" y="765" as="targetPoint" />
          </mxGeometry>
        </mxCell>
        <mxCell id="yWR68f0oTmP50vO-MbFv-59" value="&lt;span style=&quot;font-size: 24px;&quot;&gt;БД&lt;/span&gt;" style="text;html=1;strokeColor=none;fillColor=none;align=center;verticalAlign=middle;whiteSpace=wrap;rounded=0;" parent="1" vertex="1">
          <mxGeometry x="290" y="720" width="40" height="40" as="geometry" />
        </mxCell>
        <mxCell id="yWR68f0oTmP50vO-MbFv-60" value="&lt;font style=&quot;font-size: 18px;&quot;&gt;34051&lt;/font&gt;" style="text;html=1;strokeColor=none;fillColor=none;align=left;verticalAlign=middle;whiteSpace=wrap;rounded=0;" parent="1" vertex="1">
          <mxGeometry x="340" y="770" width="60" height="30" as="geometry" />
        </mxCell>
        <mxCell id="yWR68f0oTmP50vO-MbFv-61" value="&lt;span style=&quot;font-size: 24px;&quot;&gt;9&lt;/span&gt;" style="text;html=1;strokeColor=none;fillColor=none;align=center;verticalAlign=middle;whiteSpace=wrap;rounded=0;" parent="1" vertex="1">
          <mxGeometry x="340" y="720" width="40" height="40" as="geometry" />
        </mxCell>
        <mxCell id="yWR68f0oTmP50vO-MbFv-74" value="" style="ellipse;whiteSpace=wrap;html=1;aspect=fixed;" parent="1" vertex="1">
          <mxGeometry x="440" y="590" width="130" height="130" as="geometry" />
        </mxCell>
        <mxCell id="yWR68f0oTmP50vO-MbFv-75" value="" style="endArrow=none;html=1;rounded=0;exitX=0;exitY=0.5;exitDx=0;exitDy=0;entryX=1;entryY=0.5;entryDx=0;entryDy=0;" parent="1" source="yWR68f0oTmP50vO-MbFv-74" target="yWR68f0oTmP50vO-MbFv-74" edge="1">
          <mxGeometry width="50" height="50" relative="1" as="geometry">
            <mxPoint x="530" y="700" as="sourcePoint" />
            <mxPoint x="580" y="650" as="targetPoint" />
          </mxGeometry>
        </mxCell>
        <mxCell id="yWR68f0oTmP50vO-MbFv-76" value="" style="endArrow=none;html=1;rounded=0;exitX=0.5;exitY=1;exitDx=0;exitDy=0;entryX=0.5;entryY=0;entryDx=0;entryDy=0;" parent="1" source="yWR68f0oTmP50vO-MbFv-74" target="yWR68f0oTmP50vO-MbFv-74" edge="1">
          <mxGeometry width="50" height="50" relative="1" as="geometry">
            <mxPoint x="530" y="700" as="sourcePoint" />
            <mxPoint x="505" y="655" as="targetPoint" />
          </mxGeometry>
        </mxCell>
        <mxCell id="yWR68f0oTmP50vO-MbFv-77" value="&lt;span style=&quot;font-size: 24px;&quot;&gt;ФТД&lt;/span&gt;" style="text;html=1;strokeColor=none;fillColor=none;align=center;verticalAlign=middle;whiteSpace=wrap;rounded=0;" parent="1" vertex="1">
          <mxGeometry x="460" y="610" width="40" height="40" as="geometry" />
        </mxCell>
        <mxCell id="yWR68f0oTmP50vO-MbFv-78" value="&lt;font style=&quot;font-size: 18px;&quot;&gt;12440&lt;/font&gt;" style="text;html=1;strokeColor=none;fillColor=none;align=left;verticalAlign=middle;whiteSpace=wrap;rounded=0;" parent="1" vertex="1">
          <mxGeometry x="510" y="660" width="60" height="30" as="geometry" />
        </mxCell>
        <mxCell id="yWR68f0oTmP50vO-MbFv-79" value="&lt;span style=&quot;font-size: 24px;&quot;&gt;19&lt;br&gt;&lt;/span&gt;" style="text;html=1;strokeColor=none;fillColor=none;align=center;verticalAlign=middle;whiteSpace=wrap;rounded=0;" parent="1" vertex="1">
          <mxGeometry x="510" y="610" width="40" height="40" as="geometry" />
        </mxCell>
        <mxCell id="yWR68f0oTmP50vO-MbFv-80" value="" style="ellipse;whiteSpace=wrap;html=1;aspect=fixed;" parent="1" vertex="1">
          <mxGeometry x="440" y="800" width="130" height="130" as="geometry" />
        </mxCell>
        <mxCell id="yWR68f0oTmP50vO-MbFv-81" value="" style="endArrow=none;html=1;rounded=0;exitX=0;exitY=0.5;exitDx=0;exitDy=0;entryX=1;entryY=0.5;entryDx=0;entryDy=0;" parent="1" source="yWR68f0oTmP50vO-MbFv-80" target="yWR68f0oTmP50vO-MbFv-80" edge="1">
          <mxGeometry width="50" height="50" relative="1" as="geometry">
            <mxPoint x="530" y="910" as="sourcePoint" />
            <mxPoint x="580" y="860" as="targetPoint" />
          </mxGeometry>
        </mxCell>
        <mxCell id="yWR68f0oTmP50vO-MbFv-82" value="" style="endArrow=none;html=1;rounded=0;exitX=0.5;exitY=1;exitDx=0;exitDy=0;entryX=0.5;entryY=0;entryDx=0;entryDy=0;" parent="1" source="yWR68f0oTmP50vO-MbFv-80" target="yWR68f0oTmP50vO-MbFv-80" edge="1">
          <mxGeometry width="50" height="50" relative="1" as="geometry">
            <mxPoint x="530" y="910" as="sourcePoint" />
            <mxPoint x="505" y="865" as="targetPoint" />
          </mxGeometry>
        </mxCell>
        <mxCell id="yWR68f0oTmP50vO-MbFv-83" value="&lt;span style=&quot;font-size: 24px;&quot;&gt;ФАД&lt;/span&gt;" style="text;html=1;strokeColor=none;fillColor=none;align=center;verticalAlign=middle;whiteSpace=wrap;rounded=0;" parent="1" vertex="1">
          <mxGeometry x="450" y="820" width="50" height="40" as="geometry" />
        </mxCell>
        <mxCell id="yWR68f0oTmP50vO-MbFv-84" value="&lt;font style=&quot;font-size: 18px;&quot;&gt;20244&lt;/font&gt;" style="text;html=1;strokeColor=none;fillColor=none;align=left;verticalAlign=middle;whiteSpace=wrap;rounded=0;" parent="1" vertex="1">
          <mxGeometry x="510" y="870" width="60" height="30" as="geometry" />
        </mxCell>
        <mxCell id="yWR68f0oTmP50vO-MbFv-85" value="&lt;span style=&quot;font-size: 24px;&quot;&gt;31&lt;/span&gt;" style="text;html=1;strokeColor=none;fillColor=none;align=center;verticalAlign=middle;whiteSpace=wrap;rounded=0;" parent="1" vertex="1">
          <mxGeometry x="510" y="820" width="40" height="40" as="geometry" />
        </mxCell>
        <mxCell id="yWR68f0oTmP50vO-MbFv-93" value="" style="endArrow=classic;html=1;rounded=0;exitX=1;exitY=1;exitDx=0;exitDy=0;entryX=0;entryY=0.5;entryDx=0;entryDy=0;" parent="1" source="yWR68f0oTmP50vO-MbFv-56" target="yWR68f0oTmP50vO-MbFv-80" edge="1">
          <mxGeometry width="50" height="50" relative="1" as="geometry">
            <mxPoint x="590" y="810" as="sourcePoint" />
            <mxPoint x="640" y="760" as="targetPoint" />
          </mxGeometry>
        </mxCell>
        <mxCell id="yWR68f0oTmP50vO-MbFv-94" value="" style="endArrow=classic;html=1;rounded=0;entryX=0;entryY=1;entryDx=0;entryDy=0;exitX=1;exitY=0.5;exitDx=0;exitDy=0;" parent="1" source="yWR68f0oTmP50vO-MbFv-80" target="yWR68f0oTmP50vO-MbFv-54" edge="1">
          <mxGeometry width="50" height="50" relative="1" as="geometry">
            <mxPoint x="660" y="900" as="sourcePoint" />
            <mxPoint x="640" y="760" as="targetPoint" />
          </mxGeometry>
        </mxCell>
        <mxCell id="yWR68f0oTmP50vO-MbFv-98" value="&lt;span style=&quot;font-size: 18px;&quot;&gt;622&lt;/span&gt;" style="text;html=1;strokeColor=none;fillColor=none;align=right;verticalAlign=middle;whiteSpace=wrap;rounded=0;" parent="1" vertex="1">
          <mxGeometry x="440" y="660" width="60" height="30" as="geometry" />
        </mxCell>
        <mxCell id="yWR68f0oTmP50vO-MbFv-103" value="&lt;span style=&quot;font-size: 18px;&quot;&gt;723&lt;br&gt;&lt;/span&gt;" style="text;html=1;strokeColor=none;fillColor=none;align=right;verticalAlign=middle;whiteSpace=wrap;rounded=0;" parent="1" vertex="1">
          <mxGeometry x="440" y="870" width="60" height="30" as="geometry" />
        </mxCell>
        <mxCell id="yWR68f0oTmP50vO-MbFv-107" value="" style="endArrow=classic;html=1;rounded=0;entryX=0;entryY=0.5;entryDx=0;entryDy=0;exitX=1;exitY=0;exitDx=0;exitDy=0;" parent="1" source="yWR68f0oTmP50vO-MbFv-56" target="yWR68f0oTmP50vO-MbFv-74" edge="1">
          <mxGeometry relative="1" as="geometry">
            <mxPoint x="230" y="650" as="sourcePoint" />
            <mxPoint x="330" y="650" as="targetPoint" />
          </mxGeometry>
        </mxCell>
        <mxCell id="4M073sMEAIMgYrIw7gIp-1" value="" style="endArrow=classic;html=1;rounded=0;exitX=1;exitY=0.5;exitDx=0;exitDy=0;entryX=0;entryY=0;entryDx=0;entryDy=0;" edge="1" parent="1" source="yWR68f0oTmP50vO-MbFv-74" target="yWR68f0oTmP50vO-MbFv-54">
          <mxGeometry width="50" height="50" relative="1" as="geometry">
            <mxPoint x="510" y="770" as="sourcePoint" />
            <mxPoint x="560" y="720" as="targetPoint" />
          </mxGeometry>
        </mxCell>
        <mxCell id="4M073sMEAIMgYrIw7gIp-2" value="&lt;span style=&quot;font-size: 18px;&quot;&gt;248&lt;/span&gt;" style="text;html=1;strokeColor=none;fillColor=none;align=right;verticalAlign=middle;whiteSpace=wrap;rounded=0;" vertex="1" parent="1">
          <mxGeometry x="270" y="770" width="60" height="30" as="geometry" />
        </mxCell>
      </root>
    </mxGraphModel>
  </diagram>
</mxfile>
